<svg width="1280" height="720" xmlns="http://www.w3.org/2000/svg" xmlns:xlink="http://www.w3.org/1999/xlink" overflow="hidden"><defs><clipPath id="clip0"><path d="M0 0 1280 0 1280 720 0 720Z" fill-rule="evenodd" clip-rule="evenodd"/></clipPath><clipPath id="clip1"><path d="M138 0 1081 0 1081 496 138 496Z" fill-rule="evenodd" clip-rule="evenodd"/></clipPath><clipPath id="clip2"><path d="M138 0 1081 0 1081 496 138 496Z" fill-rule="evenodd" clip-rule="evenodd"/></clipPath><clipPath id="clip3"><path d="M101-163 1126-163 1126 606 101 606Z" fill-rule="evenodd" clip-rule="evenodd"/></clipPath><clipPath id="clip4"><path d="M101-163 1125-163 1125 606 101 606Z" fill-rule="evenodd" clip-rule="evenodd"/></clipPath></defs><g clip-path="url(#clip0)"><rect x="0" y="0" width="1280" height="720" fill="#FFFFFF"/><text font-family="Cambria Math,Cambria Math_MSFontService,sans-serif" font-weight="400" font-size="24" transform="translate(181.583 487)">𝑥<tspan font-size="18" x="11.66" y="5">𝜇</tspan><tspan x="208.604" y="6">𝑊</tspan><tspan font-size="18" x="226.284" y="12">𝜈</tspan><tspan font-size="18" x="232.937" y="-6">𝜇</tspan><tspan font-size="18" x="244.737" y="-6"> </tspan></text><path d="M448.165 467.324C449.876 467.775 451.19 468.749 452.107 470.247 453.024 471.744 453.482 473.55 453.482 475.665 453.482 477.786 453.025 479.592 452.111 481.083 451.197 482.575 449.882 483.546 448.165 483.997L447.954 483.32C449.308 482.869 450.314 481.978 450.973 480.648 451.632 479.318 451.962 477.628 451.962 475.577 451.962 473.597 451.634 471.952 450.977 470.642 450.321 469.332 449.305 468.452 447.928 468.001ZM437.053 467.324 437.29 468.001C435.919 468.452 434.904 469.332 434.245 470.642 433.586 471.952 433.256 473.597 433.256 475.577 433.256 477.628 433.586 479.318 434.245 480.648 434.904 481.978 435.91 482.869 437.264 483.32L437.053 483.997C435.336 483.546 434.021 482.575 433.107 481.083 432.193 479.592 431.736 477.786 431.736 475.665 431.736 473.55 432.194 471.744 433.111 470.247 434.028 468.749 435.342 467.775 437.053 467.324Z" fill-rule="evenodd"/><text font-family="Cambria Math,Cambria Math_MSFontService,sans-serif" font-weight="400" font-size="18" transform="translate(437.427 481)">1<tspan font-size="24" x="73.2092" y="53">ℎ</tspan><tspan x="86.5425" y="60">𝜈</tspan><tspan x="86.9558" y="41">(</tspan><tspan x="94.2892" y="41">1</tspan><tspan x="104.456" y="41">)</tspan><tspan font-size="24" x="119.449" y="53">=</tspan><tspan font-size="24" x="144.116" y="53">𝜎</tspan><tspan font-size="24" x="158.703" y="53">(</tspan><tspan font-size="24" x="168.703" y="53">𝑥</tspan><tspan x="181.303" y="58">𝜇</tspan><tspan font-size="24" x="194.096" y="53"> </tspan><tspan font-size="24" x="199.429" y="53">𝑊</tspan><tspan x="217.109" y="59">𝜈</tspan><tspan x="223.763" y="41">𝜇</tspan><tspan font-size="24" x="241.889" y="53">+</tspan><tspan font-size="24" x="265.223" y="53">𝑏</tspan><tspan x="277.463" y="58">𝜈</tspan><tspan font-size="24" x="288.969" y="53">)</tspan><tspan font-size="24" x="362.318" y="-54">𝑊</tspan><tspan x="379.998" y="-48">𝜅</tspan><tspan x="386.652" y="-67">𝜈</tspan><tspan x="397.165" y="-67"> </tspan><tspan x="400.998" y="-67">(</tspan><tspan x="408.332" y="-67">2</tspan><tspan x="418.498" y="-67">)</tspan><tspan font-size="24" x="550.001" y="-76">𝑦</tspan></text><path d="M5.75391-16.8984 9.73828-13.207 9.10547-12.5391 4.96875-15.3867 4.83984-15.3867 0.632812-12.5391 0-13.207 4.18359-16.8984Z" transform="translate(990.575 405)"/><text font-family="Cambria Math,Cambria Math_MSFontService,sans-serif" font-weight="400" font-size="24" transform="translate(1008.01 405)">=<tspan x="24.6667" y="0">𝜎</tspan><tspan x="39.2534" y="0">(</tspan>ℎ<tspan font-size="18" x="62.5867" y="5">𝜈</tspan><tspan x="74.0934" y="0">𝑊</tspan><tspan font-size="18" x="91.7733" y="5">𝜅</tspan><tspan font-size="18" x="98.4268" y="-9">𝜈</tspan><tspan x="115.267" y="0">+</tspan><tspan x="138.6" y="0">𝑏</tspan><tspan font-size="18" x="150.84" y="5">𝜅</tspan><tspan x="162.8" y="0">)</tspan><tspan x="-840.938" y="211">𝜇</tspan><tspan x="-820.458" y="211">=</tspan><tspan x="-795.792" y="211">1</tspan><tspan x="-782.458" y="211">,</tspan>2,3 <tspan x="-829.805" y="239">𝑥</tspan><tspan x="-816.245" y="239">:</tspan><tspan x="-807.912" y="239"> </tspan><tspan x="-800.578" y="239">ℝ</tspan><tspan font-size="18" x="-783.258" y="230">1𝑥3</tspan><tspan x="-659.672" y="212">𝜈</tspan><tspan x="-640.138" y="212">=</tspan><tspan x="-615.472" y="212">1</tspan><tspan x="-602.138" y="212">,</tspan>2<tspan x="-583.805" y="212">,</tspan>3<tspan x="-565.472" y="212">,</tspan>4<tspan x="-547.138" y="212">,</tspan>5<tspan x="-638.705" y="241">𝑊</tspan><tspan x="-614.932" y="241">:</tspan><tspan x="-606.598" y="241"> </tspan><tspan x="-599.265" y="241">ℝ</tspan><tspan font-size="18" x="-581.432" y="232">3𝑥5</tspan><tspan x="-423.327" y="225">ℎ</tspan><tspan x="-409.58" y="225">:</tspan><tspan x="-399.247" y="225">ℝ</tspan><tspan font-size="18" x="-381.927" y="217">1</tspan><tspan font-size="18" x="-371.76" y="217">𝑥5</tspan><tspan x="-206.847" y="212">𝜅</tspan><tspan x="-186.534" y="212">=</tspan><tspan x="-161.867" y="212">1</tspan><tspan x="-148.534" y="212">,</tspan>2<tspan x="-209.52" y="241">W</tspan><tspan x="-187.354" y="241">:</tspan><tspan x="-177.02" y="241">ℝ</tspan><tspan font-size="18" x="-159.187" y="232">5</tspan><tspan font-size="18" x="-149.02" y="232">𝑥2</tspan><tspan x="42.092" y="225">y</tspan><tspan x="54.2587" y="225">:</tspan><tspan x="64.592" y="225">ℝ</tspan><tspan font-size="18" x="81.912" y="216">1𝑥2</tspan></text><g clip-path="url(#clip1)"><g clip-path="url(#clip2)"><g clip-path="url(#clip3)"><g clip-path="url(#clip4)"><path d="M0 0 44.2368 0 44.2368-718.844-963.43-718.844-963.43 0-919.941 0" stroke="#333333" stroke-width="1.29702" stroke-miterlimit="10" fill="none" transform="matrix(1 0 0 -1.00062 1072.89 -116.022)"/><path d="M0 0C-3.90001 12.5506-6.09625 19.6472-6.58743 21.2934-7.0786 22.9383-7.43036 24.2379-7.64141 25.1934-8.5176 21.7973-11.0247 13.3987-15.1639 0ZM7.1643-24.1982 2.94452-10.348-18.2683-10.348-22.4881-24.1982-35.7806-24.1982-15.2432 34.2278-0.159889 34.2278 20.4568-24.1982Z" fill="#333333" transform="matrix(1 0 0 -1.00062 200.339 -114.578)"/><path d="M0 0C1.64494 0 3.01103-0.118957 4.09955-0.358151L3.18371-11.741C2.20263-11.4762 1.00794-11.3432-0.397804-11.3432-4.27223-11.3432-7.28966-12.3383-9.45264-14.3286-11.6156-16.3176-12.6965-19.1048-12.6965-22.6863L-12.6965-45.333-24.8352-45.333-24.8352-0.83526-15.6423-0.83526-13.8502-8.31806-13.2529-8.31806C-11.874-5.82507-10.009-3.81431-7.66188-2.28833-5.31343-0.76363-2.76032 0 0 0" fill="#333333" transform="matrix(1 0 0 -1.00062 246.294 -135.726)"/><path d="M0 0C2.12333 0 4.67004 0.463038 7.64269 1.39295L7.64269-7.64269C4.61759-8.99471 0.901774-9.67136-3.50221-9.67136-8.35772-9.67136-11.8932-8.4447-14.1086-5.99008-16.3253-3.53674-17.4317 0.145819-17.4317 5.05505L-17.4317 26.507-23.2427 26.507-23.2427 31.6414-16.5568 35.7013-13.0546 45.0938-5.29296 45.0938-5.29296 35.622 7.1643 35.622 7.1643 26.507-5.29296 26.507-5.29296 5.05505C-5.29296 3.32953-4.80946 2.05553-3.83989 1.23306-2.87288 0.410595-1.59249 0 0 0" fill="#333333" transform="matrix(1 0 0 -1.00062 271.512 -99.2457)"/><path d="M192.935 695.763 180.796 695.763 180.796 740.26 192.935 740.26ZM180.278 751.762C180.278 755.716 182.481 757.692 186.885 757.692 191.289 757.692 193.493 755.716 193.493 751.762 193.493 749.878 192.941 748.412 191.84 747.365 190.739 746.316 189.087 745.792 186.885 745.792 182.481 745.792 180.278 747.783 180.278 751.762" fill="#333333" transform="matrix(1 0 0 -1.00062 101.648 605.831)"/><path d="M243.667 695.763 231.528 695.763 231.528 740.26 243.667 740.26ZM231.01 751.762C231.01 755.716 233.211 757.692 237.617 757.692 242.021 757.692 244.223 755.716 244.223 751.762 244.223 749.878 243.672 748.412 242.572 747.365 241.471 746.316 239.819 745.792 237.617 745.792 233.211 745.792 231.01 747.783 231.01 751.762M224.562 731.145 214.056 731.145 214.056 695.763 201.915 695.763 201.915 731.145 195.23 731.145 195.23 736.996 201.915 740.26 201.915 743.523C201.915 748.591 203.163 752.293 205.657 754.627 208.15 756.963 212.145 758.131 217.637 758.131 221.829 758.131 225.557 757.507 228.822 756.259L225.716 747.345C223.275 748.114 221.02 748.499 218.951 748.499 217.225 748.499 215.978 747.987 215.209 746.967 214.439 745.945 214.056 744.637 214.056 743.046L214.056 740.26 224.562 740.26Z" fill="#333333" transform="matrix(1 0 0 -1.00062 101.648 605.831)"/><path d="M0 0C-13.8502 0-20.7753 7.60176-20.7753 22.8053-20.7753 30.3674-18.8925 36.1451-15.1242 40.1385-11.356 44.1319-5.95682 46.1286 1.07445 46.1286 6.2216 46.1286 10.8392 45.1194 14.9247 43.1035L11.3432 33.711C9.43345 34.4797 7.6542 35.1103 6.01055 35.6015 4.36433 36.0914 2.71939 36.337 1.07445 36.337-5.24052 36.337-8.39737 31.8524-8.39737 22.8846-8.39737 14.1815-5.24052 9.83125 1.07445 9.83125 3.41011 9.83125 5.57181 10.1421 7.56211 10.7663 9.55241 11.3892 11.5414 12.3639 13.533 13.6916L13.533 3.30395C11.5683 2.05553 9.58566 1.19341 7.58257 0.716303 5.57821 0.239194 3.05068 0 0 0" fill="#333333" transform="matrix(1 0 0 -1.00062 370.374 -89.5683)"/><path d="M299 695.763 286.861 695.763 286.861 740.26 299 740.26ZM286.343 751.762C286.343 755.716 288.546 757.692 292.95 757.692 297.354 757.692 299.556 755.716 299.556 751.762 299.556 749.878 299.006 748.412 297.905 747.365 296.804 746.316 295.152 745.792 292.95 745.792 288.546 745.792 286.343 747.783 286.343 751.762" fill="#333333" transform="matrix(1 0 0 -1.00062 101.648 605.831)"/><path d="M0 0-4.69562-0.159889C-8.22597-0.266055-10.852-0.903053-12.5775-2.0696-14.3017-3.23743-15.1639-5.0154-15.1639-7.4035-15.1639-10.8264-13.2004-12.5379-9.27356-12.5379-6.46079-12.5379-4.21211-11.7282-2.52752-10.1101-0.842935-8.49202 0-6.34184 0-3.6621ZM3.58279-20.6167 1.23434-14.5678 0.915844-14.5678C-1.12818-17.1414-3.22976-18.9257-5.39274-19.9209-7.55571-20.916-10.3749-21.4123-13.8502-21.4123-18.1225-21.4123-21.4852-20.1933-23.9399-17.7515-26.3945-15.311-27.6211-11.8343-27.6211-7.32419-27.6211-2.60043-25.9698 0.881308-22.6659 3.12359-19.3632 5.36587-14.3811 6.60661-7.72072 6.84581L0 7.085 0 9.03437C0 13.5445-2.3088 15.8009-6.92511 15.8009-10.481 15.8009-14.6599 14.7264-19.4617 12.5775L-23.4819 20.7753C-18.3616 23.4551-12.6837 24.7956-6.448 24.7956-0.477109 24.7956 4.09955 23.4947 7.28326 20.8943 10.4683 18.2939 12.0595 14.3401 12.0595 9.03437L12.0595-20.6167Z" fill="#333333" transform="matrix(1 0 0 -1.00062 432.354 -110.994)"/><path d="M361.697 695.763 349.558 695.763 349.558 757.692 361.697 757.692Z" fill="#333333" transform="matrix(1 0 0 -1.00062 101.648 605.831)"/><path d="M0 0-15.6819 0-40.9943 44.0194-41.3537 44.0194C-40.8497 36.2449-40.5965 30.6987-40.5965 27.3832L-40.5965 0-51.6211 0-51.6211 58.1881-36.0594 58.1881-10.7867 14.6062-10.5079 14.6062C-10.9057 22.1696-11.1052 27.515-11.1052 30.6462L-11.1052 58.1881 0 58.1881Z" fill="#333333" transform="matrix(1 0 0 -1.00062 538.419 -90.3645)"/><path d="M0 0C-2.57485 0-4.59073-0.816073-6.0502-2.44822-7.50967-4.07909-8.34492-6.39428-8.55726-9.39252L8.47667-9.39252C8.42295-6.39428 7.64141-4.07909 6.1295-2.44822 4.61631-0.816073 2.57357 0 0 0M1.71145-37.492C-5.45285-37.492-11.0515-35.5158-15.0846-31.5608-19.1176-27.6083-21.1335-22.0097-21.1335-14.7661-21.1335-7.31012-19.2698-1.54517-15.5425 2.52752-11.8152 6.60022-6.66033 8.63656-0.0793049 8.63656 6.20881 8.63656 11.104 6.84581 14.6062 3.26429 18.1097-0.318499 19.8595-5.26738 19.8595-11.5824L19.8595-17.4727-8.8361-17.4727C-8.70308-20.9212-7.68107-23.615-5.77135-25.5515-3.86164-27.4894-1.18062-28.4577 2.26787-28.4577 4.9476-28.4577 7.4828-28.1788 9.86963-27.6211 12.2577-27.0647 14.752-26.1757 17.3524-24.9542L17.3524-34.348C15.2291-35.4097 12.9612-36.1976 10.5476-36.7156 8.13131-37.2324 5.1868-37.492 1.71145-37.492" fill="#333333" transform="matrix(1 0 0 -1.00062 564.833 -127.083)"/><path d="M0 0-1.63087 5.69205-2.26787 5.69205C-3.56872 3.62244-5.41192 2.02355-7.8013 0.895378-10.1881-0.231519-12.9088-0.795607-15.9608-0.795607-21.1872-0.795607-25.1282 0.603741-27.781 3.40244-30.4339 6.20241-31.7603 10.2291-31.7603 15.4824L-31.7603 44.4977-19.6216 44.4977-19.6216 18.5075C-19.6216 15.2956-19.0511 12.8883-17.9101 11.283-16.7692 9.67776-14.9515 8.87576-12.4573 8.87576-9.06123 8.87576-6.60661 10.0103-5.09342 12.2782-3.58279 14.5473-2.82556 18.3079-2.82556 23.5612L-2.82556 44.4977 9.31321 44.4977 9.31321 0Z" fill="#333333" transform="matrix(1 0 0 -1.00062 620.38 -90.3645)"/><path d="M0 0C1.64494 0 3.01103-0.118957 4.09955-0.358151L3.18371-11.741C2.20263-11.4762 1.00794-11.3432-0.397804-11.3432-4.27223-11.3432-7.28966-12.3383-9.45264-14.3286-11.6156-16.3176-12.6965-19.1048-12.6965-22.6863L-12.6965-45.333-24.8352-45.333-24.8352-0.83526-15.6423-0.83526-13.8502-8.31806-13.2529-8.31806C-11.874-5.82507-10.009-3.81431-7.6606-2.28833-5.31215-0.76363-2.75904 0 0 0" fill="#333333" transform="matrix(1 0 0 -1.00062 661.559 -135.726)"/><path d="M0 0-4.6969-0.159889C-8.22597-0.266055-10.852-0.903053-12.5775-2.0696-14.303-3.23743-15.1639-5.0154-15.1639-7.4035-15.1639-10.8264-13.2004-12.5379-9.27356-12.5379-6.46207-12.5379-4.21339-11.7282-2.5288-10.1101-0.842935-8.49202 0-6.34184 0-3.6621ZM3.58151-20.6167 1.23306-14.5678 0.915844-14.5678C-1.12818-17.1414-3.23104-18.9257-5.39401-19.9209-7.55571-20.916-10.3749-21.4123-13.8502-21.4123-18.1237-21.4123-21.4865-20.1933-23.9411-17.7515-26.3958-15.311-27.6224-11.8343-27.6224-7.32419-27.6224-2.60043-25.9711 0.881308-22.6671 3.12359-19.3632 5.36587-14.3823 6.60661-7.722 6.84581L0 7.085 0 9.03437C0 13.5445-2.3088 15.8009-6.92511 15.8009-10.481 15.8009-14.6612 14.7264-19.463 12.5775L-23.4819 20.7753C-18.3616 23.4551-12.6837 24.7956-6.448 24.7956-0.478388 24.7956 4.09955 23.4947 7.28326 20.8943 10.4683 18.2939 12.0595 14.3401 12.0595 9.03437L12.0595-20.6167Z" fill="#333333" transform="matrix(1 0 0 -1.00062 692.709 -110.994)"/><path d="M622.05 695.763 609.911 695.763 609.911 757.692 622.05 757.692Z" fill="#333333" transform="matrix(1 0 0 -1.00062 101.648 605.831)"/><path d="M0 0-15.6806 0-40.9943 44.0194-41.3524 44.0194C-40.8497 36.2449-40.5952 30.6987-40.5952 27.3832L-40.5952 0-51.6198 0-51.6198 58.1881-36.0582 58.1881-10.7855 14.6062-10.5066 14.6062C-10.9044 22.1696-11.104 27.515-11.104 30.6462L-11.104 58.1881 0 58.1881Z" fill="#333333" transform="matrix(1 0 0 -1.00062 798.774 -90.3645)"/><path d="M0 0C-2.57357 0-4.59073-0.816073-6.04892-2.44822-7.50839-4.07909-8.34365-6.39428-8.55598-9.39252L8.47795-9.39252C8.42423-6.39428 7.64269-4.07909 6.1295-2.44822 4.61631-0.816073 2.57357 0 0 0M1.71145-37.492C-5.45285-37.492-11.0515-35.5158-15.0846-31.5608-19.1176-27.6083-21.1335-22.0097-21.1335-14.7661-21.1335-7.31012-19.2698-1.54517-15.5412 2.52752-11.8139 6.60022-6.66033 8.63656-0.0793049 8.63656 6.20881 8.63656 11.1052 6.84581 14.6075 3.26429 18.1097-0.318499 19.8608-5.26738 19.8608-11.5824L19.8608-17.4727-8.83482-17.4727C-8.70308-20.9212-7.68107-23.615-5.77135-25.5515-3.86036-27.4894-1.18062-28.4577 2.26787-28.4577 4.94888-28.4577 7.4828-28.1788 9.8709-27.6211 12.259-27.0647 14.752-26.1757 17.3524-24.9542L17.3524-34.348C15.2304-35.4097 12.9625-36.1976 10.5476-36.7156 8.13259-37.2324 5.18808-37.492 1.71145-37.492" fill="#333333" transform="matrix(1 0 0 -1.00062 825.187 -127.083)"/><path d="M0 0C2.12205 0 4.67004 0.463038 7.64269 1.39295L7.64269-7.64269C4.61631-8.99471 0.901774-9.67136-3.50221-9.67136-8.35772-9.67136-11.8945-8.4447-14.1086-5.99008-16.3253-3.53674-17.433 0.145819-17.433 5.05505L-17.433 26.507-23.2427 26.507-23.2427 31.6414-16.5568 35.7013-13.0546 45.0938-5.29296 45.0938-5.29296 35.622 7.1643 35.622 7.1643 26.507-5.29296 26.507-5.29296 5.05505C-5.29296 3.32953-4.80946 2.05553-3.83989 1.23306-2.87161 0.410595-1.59121 0 0 0" fill="#333333" transform="matrix(1 0 0 -1.00062 867.958 -99.2457)"/><path d="M0 0-3.42418 15.5617-8.0405 35.2242-8.31934 35.2242-16.4391 0-29.4925 0-42.1493 44.4977-30.0502 44.4977-24.9158 24.7956C-24.0933 21.2665-23.2581 16.3982-22.4088 10.1894L-22.1696 10.1894C-22.0634 12.2053-21.5991 15.4031-20.7766 19.7802L-20.1396 23.1634-14.6471 44.4977-1.274 44.4977 3.93966 23.1634C4.04583 22.5802 4.21211 21.718 4.43724 20.5771 4.66364 19.4361 4.88109 18.2222 5.09342 16.9354 5.30576 15.6474 5.4989 14.3887 5.67158 13.1544 5.84298 11.92 5.94275 10.9313 5.96961 10.1894L6.20881 10.1894C6.44672 12.0991 6.87139 14.7187 7.4828 18.0495 8.09166 21.3791 8.5304 23.6278 8.79517 24.7956L14.1291 44.4977 26.0299 44.4977 13.2132 0Z" fill="#333333" transform="matrix(1 0 0 -1.00062 915.465 -90.3645)"/><path d="M0 0C0-4.40526 0.721419-7.73479 2.16809-9.98986 3.61477-12.2462 5.96961-13.3731 9.23391-13.3731 12.4701-13.3731 14.798-12.2526 16.2191-10.0103 17.6377-7.76805 18.3476-4.43212 18.3476-1.13608e-15 18.3476 4.40398 17.6313 7.70665 16.1987 9.91056 14.7661 12.1119 12.4176 13.2132 9.15332 13.2132 5.91589 13.2132 3.58151 12.1196 2.14891 9.92974 0.716303 7.74118 0 4.43084 0 0M30.7652 0C30.7652-7.24361 28.8555-12.9088 25.0335-16.9956 21.2128-21.081 15.893-23.1238 9.07402-23.1238 4.80179-23.1238 1.0348-22.1888-2.22949-20.3187-5.49251-18.4473-8.00084-15.7612-9.75195-12.259-11.5031-8.7568-12.3792-4.67004-12.3792-4.54432e-15-12.3792 7.26919-10.481 12.9216-6.6872 16.9546-2.89335 20.9877 2.44055 23.0048 9.31193 23.0048 13.5842 23.0048 17.3524 22.0749 20.6154 20.2189 23.8797 18.3604 26.3868 15.6947 28.1379 12.2181 29.889 8.74145 30.7652 4.66876 30.7652 0" fill="#333333" transform="matrix(1 0 0 -1.00062 952.626 -112.707)"/><path d="M0 0C1.64494 0 3.01103-0.118957 4.09955-0.358151L3.18371-11.741C2.20263-11.4762 1.00794-11.3432-0.397804-11.3432-4.27223-11.3432-7.28966-12.3383-9.45264-14.3286-11.6156-16.3176-12.6965-19.1048-12.6965-22.6863L-12.6965-45.333-24.8352-45.333-24.8352-0.83526-15.6423-0.83526-13.8502-8.31806-13.2529-8.31806C-11.874-5.82507-10.009-3.81431-7.6606-2.28833-5.31215-0.76363-2.75904 0 0 0" fill="#333333" transform="matrix(1 0 0 -1.00062 1012.55 -135.726)"/><path d="M0 0 5.29296 6.7665 17.7502 20.2982 31.4418 20.2982 13.7709 0.995149 32.5163-24.1982 18.5075-24.1982 5.69077-6.16916 0.477109-10.348 0.477109-24.1982-11.6617-24.1982-11.6617 37.7312 0.477109 37.7312 0.477109 10.1088-0.159889 0Z" fill="#333333" transform="matrix(1 0 0 -1.00062 1030.69 -114.578)"/><path d="M0 0C-3.90001 12.5506-6.09625 19.6472-6.58743 21.2934-7.0786 22.9383-7.43036 24.2379-7.64141 25.1934-8.5176 21.7973-11.0247 13.3987-15.1639 0ZM7.1643-24.1982 2.94452-10.348-18.2683-10.348-22.4881-24.1982-35.7806-24.1982-15.2432 34.2278-0.159889 34.2278 20.4568-24.1982Z" fill="#333333" transform="matrix(1 0 0 -1.00062 424.449 -29.5026)"/><path d="M0 0C1.64494 0 3.01103-0.118957 4.09955-0.358151L3.18371-11.741C2.20263-11.4762 1.00794-11.3432-0.397804-11.3432-4.27223-11.3432-7.28966-12.3383-9.45264-14.3286-11.6156-16.3176-12.6965-19.1048-12.6965-22.6863L-12.6965-45.333-24.8352-45.333-24.8352-0.83526-15.6423-0.83526-13.8502-8.31806-13.2529-8.31806C-11.874-5.82507-10.009-3.81431-7.66188-2.28833-5.31343-0.76363-2.76032 0 0 0" fill="#333333" transform="matrix(1 0 0 -1.00062 470.404 -50.6499)"/><path d="M0 0C-13.8502 0-20.7753 7.60176-20.7753 22.8053-20.7753 30.3674-18.8925 36.1451-15.1242 40.1385-11.356 44.1319-5.95682 46.1286 1.07445 46.1286 6.2216 46.1286 10.8392 45.1194 14.9247 43.1035L11.3432 33.711C9.43345 34.4797 7.6542 35.1103 6.01055 35.6015 4.36433 36.0914 2.71939 36.337 1.07445 36.337-5.24052 36.337-8.39737 31.8524-8.39737 22.8846-8.39737 14.1815-5.24052 9.83125 1.07445 9.83125 3.41011 9.83125 5.57181 10.1421 7.56211 10.7663 9.55241 11.3892 11.5414 12.3639 13.533 13.6916L13.533 3.30395C11.5683 2.05553 9.58566 1.19341 7.58257 0.716303 5.57821 0.239194 3.05068 0 0 0" fill="#333333" transform="matrix(1 0 0 -1.00062 494.946 -4.49259)"/><path d="M0 0-12.1388 0-12.1388 25.989C-12.1388 32.4101-14.5269 35.622-19.3031 35.622-22.7004 35.622-25.1537 34.4669-26.6669 32.1594-28.1788 29.8506-28.9348 26.1092-28.9348 20.9352L-28.9348 0-41.0736 0-41.0736 61.9295-28.9348 61.9295-28.9348 49.3123C-28.9348 48.3312-29.0282 46.0224-29.2136 42.3872L-29.4925 38.8057-28.8555 38.8057C-26.1489 43.1572-21.8511 45.333-15.9608 45.333-10.733 45.333-6.7665 43.926-4.0599 41.1145-1.3533 38.3004 0 34.2687 0 29.0154Z" fill="#333333" transform="matrix(1 0 0 -1.00062 554.155 -5.28882)"/><path d="M471.437 610.74 459.298 610.74 459.298 655.238 471.437 655.238ZM458.782 666.74C458.782 670.693 460.983 672.669 465.388 672.669 469.792 672.669 471.995 670.693 471.995 666.74 471.995 664.855 471.444 663.39 470.343 662.341 469.242 661.293 467.591 660.769 465.388 660.769 460.983 660.769 458.782 662.76 458.782 666.74" fill="#333333" transform="matrix(1 0 0 -1.00062 101.648 605.831)"/><path d="M0 0C2.12333 0 4.67004 0.463038 7.64269 1.39295L7.64269-7.64269C4.61759-8.99471 0.901774-9.67136-3.50221-9.67136-8.35772-9.67136-11.8932-8.4447-14.1086-5.99008-16.3253-3.53674-17.4317 0.145819-17.4317 5.05505L-17.4317 26.507-23.2427 26.507-23.2427 31.6414-16.5568 35.7013-13.0546 45.0938-5.29296 45.0938-5.29296 35.622 7.1643 35.622 7.1643 26.507-5.29296 26.507-5.29296 5.05505C-5.29296 3.32953-4.80946 2.05553-3.83989 1.23306-2.87288 0.410595-1.59249 0 0 0" fill="#333333" transform="matrix(1 0 0 -1.00062 598.862 -14.17)"/><path d="M0 0C-2.57357 0-4.58945-0.816073-6.04892-2.44822-7.50711-4.07909-8.34365-6.39428-8.55598-9.39252L8.47923-9.39252C8.42423-6.39428 7.64269-4.07909 6.13078-2.44822 4.61631-0.816073 2.57357 0 0 0M1.71145-37.492C-5.45157-37.492-11.0502-35.5158-15.0833-31.5608-19.1163-27.6083-21.1322-22.0097-21.1322-14.7661-21.1322-7.31012-19.2685-1.54517-15.5412 2.52752-11.8139 6.60022-6.66033 8.63656-0.0780258 8.63656 6.21009 8.63656 11.1052 6.84581 14.6075 3.26429 18.1097-0.318499 19.8608-5.26738 19.8608-11.5824L19.8608-17.4727-8.83355-17.4727C-8.7018-20.9212-7.67979-23.615-5.77135-25.5515-3.86036-27.4894-1.17934-28.4577 2.26787-28.4577 4.94888-28.4577 7.4828-28.1788 9.8709-27.6211 12.259-27.0647 14.752-26.1757 17.3524-24.9542L17.3524-34.348C15.2317-35.4097 12.9638-36.1976 10.5476-36.7156 8.13387-37.2324 5.18936-37.492 1.71145-37.492" fill="#333333" transform="matrix(1 0 0 -1.00062 628.22 -42.0073)"/><path d="M0 0C-13.8515 0-20.7766 7.60176-20.7766 22.8053-20.7766 30.3674-18.8938 36.1451-15.1242 40.1385-11.3572 44.1319-5.95682 46.1286 1.07445 46.1286 6.2216 46.1286 10.8392 45.1194 14.9247 43.1035L11.3419 33.711C9.43217 34.4797 7.6542 35.1103 6.00927 35.6015 4.36305 36.0914 2.71939 36.337 1.07445 36.337-5.2418 36.337-8.39737 31.8524-8.39737 22.8846-8.39737 14.1815-5.2418 9.83125 1.07445 9.83125 3.40883 9.83125 5.57053 10.1421 7.56083 10.7663 9.55241 11.3892 11.5414 12.3639 13.5317 13.6916L13.5317 3.30395C11.5683 2.05553 9.58438 1.19341 7.5813 0.716303 5.57693 0.239194 3.05068 0 0 0" fill="#333333" transform="matrix(1 0 0 -1.00062 670.315 -4.49259)"/><path d="M0 0C2.12205 0 4.67004 0.463038 7.64269 1.39295L7.64269-7.64269C4.61631-8.99471 0.901774-9.67136-3.50221-9.67136-8.35772-9.67136-11.8945-8.4447-14.1086-5.99008-16.3253-3.53674-17.433 0.145819-17.433 5.05505L-17.433 26.507-23.2427 26.507-23.2427 31.6414-16.5568 35.7013-13.0546 45.0938-5.29296 45.0938-5.29296 35.622 7.1643 35.622 7.1643 26.507-5.29296 26.507-5.29296 5.05505C-5.29296 3.32953-4.80946 2.05553-3.83989 1.23306-2.87161 0.410595-1.59121 0 0 0" fill="#333333" transform="matrix(1 0 0 -1.00062 707.196 -14.17)"/><path d="M0 0-1.63087 5.69205-2.26787 5.69205C-3.56872 3.62244-5.41192 2.02355-7.8013 0.895378-10.1894-0.231519-12.9088-0.795607-15.9608-0.795607-21.1872-0.795607-25.1282 0.603741-27.781 3.40244-30.4339 6.20241-31.7603 10.2291-31.7603 15.4824L-31.7603 44.4977-19.6216 44.4977-19.6216 18.5075C-19.6216 15.2956-19.0524 12.8883-17.9101 11.283-16.7692 9.67776-14.9515 8.87576-12.4573 8.87576-9.06123 8.87576-6.60661 10.0103-5.09342 12.2782-3.58279 14.5473-2.82556 18.3079-2.82556 23.5612L-2.82556 44.4977 9.31321 44.4977 9.31321 0Z" fill="#333333" transform="matrix(1 0 0 -1.00062 749.649 -5.28882)"/><path d="M0 0C1.64494 0 3.01103-0.118957 4.09955-0.358151L3.18371-11.741C2.20263-11.4762 1.00794-11.3432-0.397804-11.3432-4.27223-11.3432-7.28966-12.3383-9.45264-14.3286-11.6156-16.3176-12.6965-19.1048-12.6965-22.6863L-12.6965-45.333-24.8352-45.333-24.8352-0.83526-15.6423-0.83526-13.8502-8.31806-13.2529-8.31806C-11.874-5.82507-10.009-3.81431-7.6606-2.28833-5.31215-0.76363-2.75904 0 0 0" fill="#333333" transform="matrix(1 0 0 -1.00062 790.828 -50.6499)"/><path d="M0 0C-2.57357 0-4.59073-0.816073-6.04892-2.44822-7.50839-4.07909-8.34365-6.39428-8.55598-9.39252L8.47795-9.39252C8.42423-6.39428 7.64269-4.07909 6.1295-2.44822 4.61631-0.816073 2.57357 0 0 0M1.71145-37.492C-5.45285-37.492-11.0515-35.5158-15.0846-31.5608-19.1176-27.6083-21.1335-22.0097-21.1335-14.7661-21.1335-7.31012-19.2698-1.54517-15.5412 2.52752-11.8139 6.60022-6.66033 8.63656-0.0793049 8.63656 6.20881 8.63656 11.1052 6.84581 14.6075 3.26429 18.1097-0.318499 19.8608-5.26738 19.8608-11.5824L19.8608-17.4727-8.83482-17.4727C-8.70308-20.9212-7.68107-23.615-5.77135-25.5515-3.86036-27.4894-1.18062-28.4577 2.26787-28.4577 4.94888-28.4577 7.4828-28.1788 9.8709-27.6211 12.259-27.0647 14.752-26.1757 17.3524-24.9542L17.3524-34.348C15.2304-35.4097 12.9625-36.1976 10.5476-36.7156 8.13259-37.2324 5.18808-37.492 1.71145-37.492" fill="#333333" transform="matrix(1 0 0 -1.00062 815.728 -42.0073)"/><path d="M0 0-418.861-65.1656-2.9701-98.1872-418.861-200.052-2.9701-193.156-421.041-334.938-2.61067-386.292-418.861-200.052-2.61067 0-418.861-334.938-2.9701-98.1872" stroke="#999999" stroke-width="3.84373" stroke-miterlimit="10" fill="none" transform="matrix(1 0 0 -1.00062 620.817 65.4198)"/><path d="M0 0 415.89 46.8142 0 269.772 415.89-48.1547" stroke="#999999" stroke-width="3.84373" stroke-miterlimit="10" fill="none" transform="matrix(1 0 0 -1.00062 201.957 400.566)"/><path d="M0 0 415.89-127.992" stroke="#999999" stroke-width="3.84373" stroke-miterlimit="10" fill="none" transform="matrix(1 0 0 -1.00062 201.957 130.626)"/><path d="M0 0 415.89-88.072" stroke="#999999" stroke-width="3.84373" stroke-miterlimit="10" fill="none" transform="matrix(1 0 0 -1.00062 201.957 265.596)"/><path d="M0 0 393.673-120.876" stroke="#999999" stroke-width="3.84373" stroke-miterlimit="10" fill="none" transform="matrix(1 0 0 -1.00062 617.847 68.6421)"/><path d="M0 0 393.673-25.9084" stroke="#999999" stroke-width="3.84373" stroke-miterlimit="10" fill="none" transform="matrix(1 0 0 -1.00062 617.847 163.668)"/><path d="M0 0 393.673 69.0605" stroke="#999999" stroke-width="3.84373" stroke-miterlimit="10" fill="none" transform="matrix(1 0 0 -1.00062 617.847 258.697)"/><path d="M0 0 393.673 164.028" stroke="#999999" stroke-width="3.84373" stroke-miterlimit="10" fill="none" transform="matrix(1 0 0 -1.00062 617.847 353.723)"/><path d="M0 0 393.673 56.7951" stroke="#999999" stroke-width="3.84373" stroke-miterlimit="10" fill="none" transform="matrix(1 0 0 -1.00062 617.847 353.723)"/><path d="M0 0 393.673 151.764" stroke="#999999" stroke-width="3.84373" stroke-miterlimit="10" fill="none" transform="matrix(1 0 0 -1.00062 617.847 448.752)"/><path d="M0 0 393.673 258.997" stroke="#999999" stroke-width="3.84373" stroke-miterlimit="10" fill="none" transform="matrix(1 0 0 -1.00062 617.847 448.752)"/><path d="M0 0-393.673 38.1725" stroke="#999999" stroke-width="3.84373" stroke-miterlimit="10" fill="none" transform="matrix(1 0 0 -1.00062 1011.52 296.892)"/><path d="M0 0-393.673 133.141" stroke="#999999" stroke-width="3.84373" stroke-miterlimit="10" fill="none" transform="matrix(1 0 0 -1.00062 1011.52 296.892)"/><path d="M0 0-393.314 224.934" stroke="#999999" stroke-width="3.84373" stroke-miterlimit="10" fill="none" transform="matrix(1 0 0 -1.00062 1011.52 296.892)"/><path d="M0 0C-24.2225 0-43.9285 19.706-43.9285 43.9285-43.9285 68.1498-24.2225 87.8571 0 87.8571 24.2225 87.8571 43.9285 68.1498 43.9285 43.9285 43.9285 19.706 24.2225 0 0 0" fill="#61C9DB" transform="matrix(1 0 0 -1.00062 201.957 174.581)"/><path d="M0 0C-27.396 0-49.6845-22.2885-49.6845-49.6845-49.6845-77.0806-27.396-99.3691 0-99.3691 27.396-99.3691 49.6845-77.0806 49.6845-49.6845 49.6845-22.2885 27.396 0 0 0M0-11.512C21.0823-11.512 38.1725-28.6022 38.1725-49.6845 38.1725-70.7656 21.0823-87.8571 0-87.8571-21.0823-87.8571-38.1725-70.7656-38.1725-49.6845-38.1725-28.6022-21.0823-11.512 0-11.512" fill="#FFFFFF" transform="matrix(1 0 0 -1.00062 201.957 80.9106)"/><path d="M0 0C-24.2225 0-43.9285 19.706-43.9285 43.9285-43.9285 68.1511-24.2225 87.8571 0 87.8571 24.2225 87.8571 43.9285 68.1511 43.9285 43.9285 43.9285 19.706 24.2225 0 0 0" fill="#1D9DE0" transform="matrix(1 0 0 -1.00062 617.847 112.598)"/><path d="M0 0C-27.396 0-49.6845-22.2885-49.6845-49.6845-49.6845-77.0806-27.396-99.3691 0-99.3691 27.396-99.3691 49.6845-77.0806 49.6845-49.6845 49.6845-22.2885 27.396 0 0 0M0-11.512C21.081-11.512 38.1725-28.6035 38.1725-49.6845 38.1725-70.7656 21.081-87.8571 0-87.8571-21.0823-87.8571-38.1725-70.7656-38.1725-49.6845-38.1725-28.6035-21.0823-11.512 0-11.512" fill="#FFFFFF" transform="matrix(1 0 0 -1.00062 617.847 18.927)"/><path d="M0 0C-24.2225 0-43.9285 19.706-43.9285 43.9285-43.9285 68.1498-24.2225 87.8571 0 87.8571 24.2225 87.8571 43.9285 68.1498 43.9285 43.9285 43.9285 19.706 24.2225 0 0 0" fill="#1D9DE0" transform="matrix(1 0 0 -1.00062 617.847 207.624)"/><path d="M0 0C-27.396 0-49.6845-22.2885-49.6845-49.6845-49.6845-77.0806-27.396-99.3691 0-99.3691 27.396-99.3691 49.6845-77.0806 49.6845-49.6845 49.6845-22.2885 27.396 0 0 0M0-11.512C21.081-11.512 38.1725-28.6022 38.1725-49.6845 38.1725-70.7656 21.081-87.8571 0-87.8571-21.0823-87.8571-38.1725-70.7656-38.1725-49.6845-38.1725-28.6022-21.0823-11.512 0-11.512" fill="#FFFFFF" transform="matrix(1 0 0 -1.00062 617.847 113.953)"/><path d="M0 0C-24.2225 0-43.9285 19.706-43.9285 43.9285-43.9285 68.1498-24.2225 87.8571 0 87.8571 24.2225 87.8571 43.9285 68.1498 43.9285 43.9285 43.9285 19.706 24.2225 0 0 0" fill="#1D9DE0" transform="matrix(1 0 0 -1.00062 617.847 302.652)"/><path d="M0 0C-27.396 0-49.6845-22.2885-49.6845-49.6845-49.6845-77.0806-27.396-99.3691 0-99.3691 27.396-99.3691 49.6845-77.0806 49.6845-49.6845 49.6845-22.2885 27.396 0 0 0M0-11.512C21.081-11.512 38.1725-28.6022 38.1725-49.6845 38.1725-70.7643 21.081-87.8571 0-87.8571-21.0823-87.8571-38.1725-70.7643-38.1725-49.6845-38.1725-28.6022-21.0823-11.512 0-11.512" fill="#FFFFFF" transform="matrix(1 0 0 -1.00062 617.847 208.981)"/><path d="M0 0C-24.2225 0-43.9285 19.706-43.9285 43.9285-43.9285 68.1498-24.2225 87.8571 0 87.8571 24.2225 87.8571 43.9285 68.1498 43.9285 43.9285 43.9285 19.706 24.2225 0 0 0" fill="#1D9DE0" transform="matrix(1 0 0 -1.00062 617.847 397.679)"/><path d="M0 0C-27.396 0-49.6845-22.2885-49.6845-49.6845-49.6845-77.0806-27.396-99.3691 0-99.3691 27.396-99.3691 49.6845-77.0806 49.6845-49.6845 49.6845-22.2885 27.396 0 0 0M0-11.512C21.081-11.512 38.1725-28.6035 38.1725-49.6845 38.1725-70.7656 21.081-87.8571 0-87.8571-21.0823-87.8571-38.1725-70.7656-38.1725-49.6845-38.1725-28.6035-21.0823-11.512 0-11.512" fill="#FFFFFF" transform="matrix(1 0 0 -1.00062 617.847 304.008)"/><path d="M0 0C-24.2225 0-43.9285 19.7047-43.9285 43.9273-43.9285 68.1485-24.2225 87.8558 0 87.8558 24.2225 87.8558 43.9285 68.1485 43.9285 43.9273 43.9285 19.7047 24.2225 0 0 0" fill="#1D9DE0" transform="matrix(1 0 0 -1.00062 617.847 492.706)"/><path d="M0 0C-27.396 0-49.6845-22.2885-49.6845-49.6845-49.6845-77.0793-27.396-99.3678 0-99.3678 27.396-99.3678 49.6845-77.0793 49.6845-49.6845 49.6845-22.2885 27.396 0 0 0M0-11.512C21.081-11.512 38.1725-28.6022 38.1725-49.6845 38.1725-70.7643 21.081-87.8558 0-87.8558-21.0823-87.8558-38.1725-70.7643-38.1725-49.6845-38.1725-28.6022-21.0823-11.512 0-11.512" fill="#FFFFFF" transform="matrix(1 0 0 -1.00062 617.847 399.036)"/><path d="M0 0C-24.2225 0-43.9285 19.706-43.9285 43.9285-43.9285 68.1498-24.2225 87.8571 0 87.8571 24.2225 87.8571 43.9285 68.1498 43.9285 43.9285 43.9285 19.706 24.2225 0 0 0" fill="#0E2947" transform="matrix(1 0 0 -1.00062 1011.52 233.548)"/><path d="M0 0C-27.396 0-49.6845-22.2885-49.6845-49.6845-49.6845-77.0806-27.396-99.3691 0-99.3691 27.396-99.3691 49.6845-77.0806 49.6845-49.6845 49.6845-22.2885 27.396 0 0 0M0-11.512C21.081-11.512 38.1725-28.6022 38.1725-49.6845 38.1725-70.7656 21.081-87.8571 0-87.8571-21.081-87.8571-38.1725-70.7656-38.1725-49.6845-38.1725-28.6022-21.081-11.512 0-11.512" fill="#FFFFFF" transform="matrix(1 0 0 -1.00062 1011.52 139.878)"/><path d="M0 0C-24.2225 0-43.9285 19.706-43.9285 43.9285-43.9285 68.1498-24.2225 87.8571 0 87.8571 24.2225 87.8571 43.9285 68.1498 43.9285 43.9285 43.9285 19.706 24.2225 0 0 0" fill="#0E2947" transform="matrix(1 0 0 -1.00062 1011.52 340.848)"/><path d="M0 0C-27.396 0-49.6845-22.2885-49.6845-49.6845-49.6845-77.0806-27.396-99.3691 0-99.3691 27.396-99.3691 49.6845-77.0806 49.6845-49.6845 49.6845-22.2885 27.396 0 0 0M0-11.512C21.081-11.512 38.1725-28.6022 38.1725-49.6845 38.1725-70.7656 21.081-87.8571 0-87.8571-21.081-87.8571-38.1725-70.7656-38.1725-49.6845-38.1725-28.6022-21.081-11.512 0-11.512" fill="#FFFFFF" transform="matrix(1 0 0 -1.00062 1011.52 247.177)"/><path d="M0 0C-24.2225 0-43.9285 19.706-43.9285 43.9285-43.9285 68.1498-24.2225 87.8571 0 87.8571 24.2225 87.8571 43.9285 68.1498 43.9285 43.9285 43.9285 19.706 24.2225 0 0 0" fill="#61C9DB" transform="matrix(1 0 0 -1.00062 201.957 309.552)"/><path d="M0 0C-27.396 0-49.6845-22.2885-49.6845-49.6845-49.6845-77.0806-27.396-99.3691 0-99.3691 27.396-99.3691 49.6845-77.0806 49.6845-49.6845 49.6845-22.2885 27.396 0 0 0M0-11.512C21.0823-11.512 38.1725-28.6022 38.1725-49.6845 38.1725-70.7656 21.0823-87.8571 0-87.8571-21.0823-87.8571-38.1725-70.7656-38.1725-49.6845-38.1725-28.6022-21.0823-11.512 0-11.512" fill="#FFFFFF" transform="matrix(1 0 0 -1.00062 201.957 215.881)"/><path d="M0 0C-24.2225 0-43.9285 19.706-43.9285 43.9285-43.9285 68.1498-24.2225 87.8571 0 87.8571 24.2225 87.8571 43.9285 68.1498 43.9285 43.9285 43.9285 19.706 24.2225 0 0 0" fill="#61C9DB" transform="matrix(1 0 0 -1.00062 201.957 444.522)"/><path d="M0 0C-27.396 0-49.6845-22.2885-49.6845-49.6845-49.6845-77.0806-27.396-99.3691 0-99.3691 27.396-99.3691 49.6845-77.0806 49.6845-49.6845 49.6845-22.2885 27.396 0 0 0M0-11.512C21.0823-11.512 38.1725-28.6022 38.1725-49.6845 38.1725-70.7656 21.0823-87.8571 0-87.8571-21.0823-87.8571-38.1725-70.7656-38.1725-49.6845-38.1725-28.6022-21.0823-11.512 0-11.512" fill="#FFFFFF" transform="matrix(1 0 0 -1.00062 201.957 350.851)"/><path d="M57.67 86.9003 63.2035 86.9003 63.2035 60.8039 57.67 60.8039Z" fill="#333333" transform="matrix(1 0 0 -1.00062 101.648 605.831)"/><path d="M0 0-5.44518 0-5.44518 11.6565C-5.44518 13.0955-5.701 14.1764-6.21137 14.8965-6.72429 15.6154-7.53908 15.9761-8.65831 15.9761-10.1805 15.9761-11.2805 15.467-11.9597 14.4501-12.6389 13.432-12.9779 11.7461-12.9779 9.38996L-12.9779 0-18.4218 0-18.4218 19.9567-14.2621 19.9567-13.5304 17.4036-13.2273 17.4036C-12.6197 18.368-11.7845 19.0971-10.719 19.5909-9.65474 20.0846-8.44342 20.3328-7.08628 20.3328-4.76725 20.3328-3.00591 19.7034-1.80227 18.4486-0.601183 17.1925 0 15.38 0 13.0137Z" fill="#333333" transform="matrix(1 0 0 -1.00062 187.585 544.991)"/><path d="M0 0C-1.34563 0-2.3267-0.413153-2.94579-1.24074-3.56488-2.06832-3.88594-3.43441-3.91024-5.33773L-3.91024-5.9274C-3.91024-8.06864-3.59175-9.60357-2.95603-10.5309-2.31775-11.4608-1.30981-11.9239 0.0716303-11.9239 2.5109-11.9239 3.72989-9.91312 3.72989-5.89031 3.72989-3.92687 3.4293-2.45462 2.8294-1.47226 2.22693-0.491179 1.28423 0 0 0M1.60656-16.3343C-0.738047-16.3343-2.57741-15.4824-3.91024-13.7799L-4.19549-13.7799C-4.0049-15.4466-3.91024-16.411-3.91024-16.6719L-3.91024-24.7585-9.35414-24.7585-9.35414 3.97932-4.92842 3.97932-4.15967 1.39167-3.91024 1.39167C-2.63753 3.3679-0.750839 4.35538 1.74855 4.35538 4.10467 4.35538 5.94915 3.44465 7.28198 1.62447 8.61482-0.195704 9.28123-2.72579 9.28123-5.96194 9.28123-8.09294 8.96913-9.94254 8.34365-11.5133 7.71944-13.084 6.83046-14.28 5.67542-15.1025 4.52166-15.9224 3.1658-16.3343 1.60656-16.3343" fill="#333333" transform="matrix(1 0 0 -1.00062 200.718 529.004)"/><path d="M0 0-0.731652 2.55311-1.01689 2.55311C-1.60017 1.62447-2.42647 0.90689-3.49837 0.401641-4.56899-0.103608-5.78926-0.356872-7.15791-0.356872-9.50252-0.356872-11.2703 0.271172-12.4585 1.52598-13.6494 2.78207-14.2442 4.58817-14.2442 6.9443L-14.2442 19.9567-8.80029 19.9567-8.80029 8.30016C-8.80029 6.85988-8.54447 5.78159-8.03154 5.06017-7.52118 4.34131-6.7051 3.9806-5.58716 3.9806-4.06374 3.9806-2.96242 4.48968-2.28449 5.50786-1.60656 6.52475-1.26632 8.2119-1.26632 10.568L-1.26632 19.9567 4.17758 19.9567 4.17758 0Z" fill="#333333" transform="matrix(1 0 0 -1.00062 226.807 544.991)"/><path d="M0 0C0.951659 0 2.09519 0.207216 3.42802 0.624207L3.42802-3.42802C2.07088-4.03432 0.404199-4.33875-1.57075-4.33875-3.74908-4.33875-5.3339-3.78745-6.32777-2.68741-7.32164-1.5861-7.81793 0.0652347-7.81793 2.26659L-7.81793 11.8881-10.4235 11.8881-10.4235 14.1905-7.42652 16.0119-5.85449 20.2253-2.37275 20.2253-2.37275 15.9748 3.21313 15.9748 3.21313 11.8881-2.37275 11.8881-2.37275 2.26659C-2.37275 1.49272-2.15786 0.92224-1.72296 0.553855-1.28807 0.184192-0.713744 0 0 0" fill="#333333" transform="matrix(1 0 0 -1.00062 243.276 541.007)"/><path d="M0 0 0 26.0964 5.53344 26.0964 5.53344 4.56899 16.1194 4.56899 16.1194 0Z" fill="#333333" transform="matrix(1 0 0 -1.00062 158.032 583.768)"/><path d="M0 0-2.10542-0.0716303C-3.68896-0.118957-4.86702-0.404199-5.6396-0.928635-6.41475-1.45179-6.79976-2.24868-6.79976-3.32057-6.79976-4.85551-5.91973-5.62297-4.15839-5.62297-2.89847-5.62297-1.88925-5.25971-1.13329-4.53317-0.377338-3.80792 0-2.84474 0-1.6411ZM1.60784-9.2467 0.553855-6.53242 0.410595-6.53242C-0.506528-7.68746-1.44923-8.48819-2.4188-8.93332-3.38837-9.37973-4.65341-9.60357-6.21137-9.60357-8.12748-9.60357-9.63555-9.05611-10.7369-7.96119-11.8369-6.86627-12.3882-5.30703-12.3882-3.28348-12.3882-1.16527-11.6463 0.396525-10.1651 1.40191-8.68389 2.40729-6.44928 2.9637-3.46256 3.06987L0 3.17731 0 4.05223C0 6.07578-1.0348 7.08756-3.10568 7.08756-4.70074 7.08756-6.57463 6.60533-8.72866 5.64088L-10.5309 9.31833C-8.23364 10.5207-5.68821 11.1206-2.89207 11.1206-0.213612 11.1206 1.83808 10.5373 3.26685 9.37205 4.69562 8.2055 5.40936 6.43265 5.40936 4.05223L5.40936-9.2467Z" fill="#333333" transform="matrix(1 0 0 -1.00062 187.496 574.516)"/><path d="M0 0 5.96194 0 9.72764-11.2268C10.0487-12.2027 10.27-13.3578 10.3889-14.6893L10.4964-14.6893C10.6269-13.4639 10.8827-12.3102 11.2639-11.2268L14.9579 0 20.7958 0 12.3524-22.5098C11.5785-24.5922 10.4746-26.1502 9.04076-27.1862 7.60688-28.2198 5.93252-28.7391 4.01641-28.7391 3.07626-28.7391 2.15402-28.638 1.24969-28.4347L1.24969-24.1164C1.90332-24.2699 2.61834-24.3466 3.39093-24.3466 4.35538-24.3466 5.19703-24.0537 5.91717-23.464 6.63731-22.8744 7.20012-21.9841 7.60432-20.7958L7.92538-19.8134Z" fill="#333333" transform="matrix(1 0 0 -1.00062 193.826 563.799)"/><path d="M0 0C-1.15376 0-2.05809-0.365826-2.713-1.09748-3.3679-1.83041-3.74268-2.86777-3.83861-4.21339L3.8028-4.21339C3.77722-2.86777 3.42802-1.83041 2.74881-1.09748 2.0696-0.365826 1.15376 0 0 0M0.767467-16.8152C-2.44566-16.8152-4.95656-15.9288-6.76522-14.1559-8.57389-12.3831-9.47822-9.87218-9.47822-6.62324-9.47822-3.27836-8.64296-0.693279-6.97116 1.13329-5.29936 2.95859-2.988 3.87315-0.0358151 3.87315 2.78463 3.87315 4.98086 3.06987 6.55033 1.4633 8.12236-0.143261 8.90773-2.3638 8.90773-5.19575L8.90773-7.83712-3.96397-7.83712C-3.90385-9.38356-3.44465-10.591-2.58764-11.4608-1.73192-12.3294-0.529552-12.7643 1.01689-12.7643 2.21798-12.7643 3.35511-12.6389 4.42701-12.3895 5.49762-12.1388 6.61684-11.741 7.78212-11.1922L7.78212-15.4056C6.83046-15.8815 5.81356-16.2345 4.73015-16.4673 3.64803-16.7001 2.32543-16.8152 0.767467-16.8152" fill="#333333" transform="matrix(1 0 0 -1.00062 223.915 567.299)"/><path d="M0 0C0.736768 0 1.35074-0.0537227 1.83808-0.161168L1.42749-5.2661C0.986195-5.14715 0.451526-5.08831-0.179076-5.08831-1.91611-5.08831-3.27069-5.53344-4.23898-6.42626-5.20982-7.31908-5.69461-8.56877-5.69461-10.1753L-5.69461-20.3328-11.1398-20.3328-11.1398-0.376059-7.01593-0.376059-6.21137-3.73117-5.94403-3.73117C-5.32622-2.61323-4.48968-1.71145-3.43697-1.02713-2.38299-0.342802-1.23818 0 0 0" fill="#333333" transform="matrix(1 0 0 -1.00062 246.561 563.423)"/><path d="M0 0-5.51553 0-5.51553 11.2626-15.852 11.2626-15.852 0-21.3855 0-21.3855 26.0964-15.852 26.0964-15.852 15.8687-5.51553 15.8687-5.51553 26.0964 0 26.0964Z" fill="#333333" transform="matrix(1 0 0 -1.00062 581.346 544.991)"/><path d="M489.474 60.8026 484.029 60.8026 484.029 80.7593 489.474 80.7593ZM483.797 85.9179C483.797 87.6921 484.783 88.5785 486.76 88.5785 488.735 88.5785 489.723 87.6921 489.723 85.9179 489.723 85.0737 489.475 84.4163 488.983 83.9443 488.489 83.4748 487.747 83.2395 486.76 83.2395 484.783 83.2395 483.797 84.131 483.797 85.9179" fill="#333333" transform="matrix(1 0 0 -1.00062 101.648 605.831)"/><path d="M0 0C1.39295 0 2.41368 0.404199 3.06219 1.21388 3.70942 2.02355 4.06374 3.39732 4.12386 5.33901L4.12386 5.92612C4.12386 8.06992 3.79385 9.60357 3.13254 10.5322 2.47252 11.4596 1.39935 11.9239-0.0882587 11.9239-1.30341 11.9239-2.24612 11.4097-2.91765 10.38-3.59175 9.35159-3.92687 7.85502-3.92687 5.89031-3.92687 3.92687-3.58791 2.45589-2.9087 1.47354-2.23077 0.492458-1.2612 0 0 0M-1.90971-4.33747C-4.25433-4.33747-6.09625-3.42802-7.4342-1.60656-8.77215 0.214891-9.4424 2.73858-9.4424 5.96322-9.4424 9.23391-8.76192 11.7845-7.39838 13.611-6.03613 15.4363-4.15839 16.3509-1.76645 16.3509 0.744443 16.3509 2.65927 15.3749 3.9806 13.423L4.15967 13.423C3.88594 14.9119 3.74908 16.2383 3.74908 17.4049L3.74908 23.7966 9.21088 23.7966 9.21088-3.97932 5.03458-3.97932 3.9806-1.39167 3.74908-1.39167C2.5109-3.35511 0.624207-4.33747-1.90971-4.33747" fill="#333333" transform="matrix(1 0 0 -1.00062 603.235 541.009)"/><path d="M0 0C1.39295 0 2.41368 0.404199 3.06219 1.21388 3.70942 2.02355 4.06374 3.39732 4.12386 5.33901L4.12386 5.92612C4.12386 8.06992 3.79385 9.60357 3.13254 10.5322 2.47252 11.4596 1.39935 11.9239-0.0882587 11.9239-1.30341 11.9239-2.24612 11.4097-2.91765 10.38-3.59175 9.35159-3.92687 7.85502-3.92687 5.89031-3.92687 3.92687-3.58791 2.45589-2.9087 1.47354-2.23077 0.492458-1.2612 0 0 0M-1.90971-4.33747C-4.25433-4.33747-6.09625-3.42802-7.4342-1.60656-8.77215 0.214891-9.4424 2.73858-9.4424 5.96322-9.4424 9.23391-8.76192 11.7845-7.39838 13.611-6.03613 15.4363-4.15839 16.3509-1.76645 16.3509 0.744443 16.3509 2.65927 15.3749 3.9806 13.423L4.15967 13.423C3.88594 14.9119 3.74908 16.2383 3.74908 17.4049L3.74908 23.7966 9.21088 23.7966 9.21088-3.97932 5.03458-3.97932 3.9806-1.39167 3.74908-1.39167C2.5109-3.35511 0.624207-4.33747-1.90971-4.33747" fill="#333333" transform="matrix(1 0 0 -1.00062 624.54 541.009)"/><path d="M0 0C-1.15376 0-2.05809-0.367105-2.713-1.09876-3.3679-1.83169-3.74268-2.86777-3.83861-4.21467L3.8028-4.21467C3.77722-2.86777 3.42802-1.83169 2.74881-1.09876 2.0696-0.367105 1.15376 0 0 0M0.767467-16.8152C-2.44566-16.8152-4.95656-15.9288-6.76522-14.1572-8.57389-12.3844-9.47822-9.87346-9.47822-6.62324-9.47822-3.27964-8.64296-0.694558-6.97116 1.13201-5.29936 2.95859-2.988 3.87187-0.0358151 3.87187 2.78463 3.87187 4.98086 3.06987 6.55033 1.46202 8.12236-0.14454 8.90773-2.3638 8.90773-5.19575L8.90773-7.83712-3.96397-7.83712C-3.90385-9.38356-3.44465-10.5923-2.58764-11.4621-1.73192-12.3294-0.529552-12.7643 1.01689-12.7643 2.21798-12.7643 3.35511-12.6389 4.42701-12.3895 5.49762-12.1388 6.61684-11.7422 7.78212-11.1922L7.78212-15.4069C6.83046-15.8815 5.81356-16.2358 4.73015-16.4686 3.64803-16.7014 2.32543-16.8152 0.767467-16.8152" fill="#333333" transform="matrix(1 0 0 -1.00062 645.882 528.522)"/><path d="M0 0-5.44518 0-5.44518 11.6565C-5.44518 13.0955-5.701 14.1751-6.21137 14.8953-6.72429 15.6141-7.53908 15.9761-8.65831 15.9761-10.1805 15.9761-11.2805 15.467-11.9597 14.4501-12.6389 13.4307-12.9779 11.7448-12.9779 9.38868L-12.9779 0-18.4218 0-18.4218 19.9567-14.2621 19.9567-13.5304 17.4023-13.2273 17.4023C-12.6197 18.3668-11.7845 19.0971-10.719 19.5909-9.65474 20.0833-8.44342 20.3315-7.08628 20.3315-4.76725 20.3315-3.00591 19.7034-1.80227 18.4473-0.601183 17.1925 0 15.3788 0 13.0137Z" fill="#333333" transform="matrix(1 0 0 -1.00062 675.81 544.991)"/><path d="M0 0 0 26.0964 5.53344 26.0964 5.53344 4.56899 16.1194 4.56899 16.1194 0Z" fill="#333333" transform="matrix(1 0 0 -1.00062 573.694 583.768)"/><path d="M0 0-2.10542-0.0729094C-3.68896-0.120237-4.86702-0.404199-5.6396-0.929914-6.41475-1.45179-6.79976-2.24868-6.79976-3.32057-6.79976-4.85679-5.91973-5.62297-4.15839-5.62297-2.89847-5.62297-1.88925-5.26099-1.13329-4.53445-0.377338-3.80792 0-2.84602 0-1.6411ZM1.60784-9.2467 0.553855-6.53242 0.410595-6.53242C-0.506528-7.68746-1.44923-8.48946-2.4188-8.93332-3.38837-9.38101-4.65341-9.60357-6.21137-9.60357-8.12748-9.60357-9.63555-9.05611-10.7369-7.96247-11.8369-6.86755-12.3882-5.30831-12.3882-3.28476-12.3882-1.16655-11.6463 0.395246-10.1651 1.40191-8.68389 2.40601-6.44928 2.96242-3.46256 3.06987L0 3.17731 0 4.05223C0 6.07578-1.0348 7.08756-3.10568 7.08756-4.70074 7.08756-6.57463 6.60533-8.72866 5.64088L-10.5309 9.31833C-8.23364 10.5207-5.68821 11.1193-2.89207 11.1193-0.213612 11.1193 1.83808 10.5373 3.26685 9.37077 4.69562 8.20422 5.40936 6.43265 5.40936 4.05223L5.40936-9.2467Z" fill="#333333" transform="matrix(1 0 0 -1.00062 603.158 574.516)"/><path d="M0 0 5.96194 0 9.72764-11.2268C10.0487-12.204 10.27-13.3578 10.3889-14.6893L10.4964-14.6893C10.6256-13.4652 10.8814-12.3115 11.2626-11.2268L14.9579 0 20.7945 0 12.3524-22.5098C11.5772-24.5935 10.4746-26.1514 9.04076-27.1862 7.60688-28.2198 5.93124-28.7404 4.01641-28.7404 3.07626-28.7404 2.15402-28.638 1.24969-28.4347L1.24969-24.1164C1.90332-24.2711 2.61834-24.3479 3.39093-24.3479 4.35538-24.3479 5.19703-24.0537 5.91589-23.464 6.63731-22.8744 7.19884-21.9841 7.60432-20.7958L7.92538-19.8134Z" fill="#333333" transform="matrix(1 0 0 -1.00062 609.488 563.799)"/><path d="M0 0C-1.15376 0-2.05809-0.367105-2.713-1.09876-3.3679-1.83169-3.74268-2.86777-3.83861-4.21467L3.8028-4.21467C3.77722-2.86777 3.42802-1.83169 2.74881-1.09876 2.0696-0.367105 1.15376 0 0 0M0.767467-16.8152C-2.44566-16.8152-4.95656-15.9288-6.76522-14.1572-8.57389-12.3844-9.47822-9.87346-9.47822-6.62324-9.47822-3.27964-8.64296-0.694558-6.97116 1.13201-5.29936 2.95859-2.988 3.87187-0.0358151 3.87187 2.78463 3.87187 4.98086 3.06987 6.55033 1.46202 8.12236-0.14454 8.90773-2.3638 8.90773-5.19575L8.90773-7.83712-3.96397-7.83712C-3.90385-9.38356-3.44465-10.5923-2.58764-11.4621-1.73192-12.3294-0.529552-12.7643 1.01689-12.7643 2.21798-12.7643 3.35511-12.6389 4.42701-12.3895 5.49762-12.1388 6.61684-11.7422 7.78212-11.1922L7.78212-15.4069C6.83046-15.8815 5.81356-16.2358 4.73015-16.4686 3.64803-16.7014 2.32543-16.8152 0.767467-16.8152" fill="#333333" transform="matrix(1 0 0 -1.00062 639.577 567.299)"/><path d="M0 0C0.736768 0 1.35074-0.0524436 1.83808-0.159889L1.42749-5.2661C0.986195-5.14587 0.451526-5.08703-0.179076-5.08703-1.91611-5.08703-3.27069-5.53344-4.23898-6.42498-5.20982-7.3178-5.69461-8.56877-5.69461-10.1753L-5.69461-20.3315-11.1398-20.3315-11.1398-0.37478-7.01593-0.37478-6.21137-3.72989-5.94403-3.72989C-5.32622-2.61323-4.48968-1.71145-3.43697-1.02713-2.38299-0.342802-1.23818 0 0 0" fill="#333333" transform="matrix(1 0 0 -1.00062 662.222 563.424)"/><path d="M0 0C0-2.9151 0.553855-5.11133 1.66029-6.58615 2.76672-8.06352 4.42061-8.80029 6.62324-8.80029 11.0375-8.80029 13.2439-5.86729 13.2439 0 13.2439 5.8788 11.0502 8.8182 6.65778 8.8182 4.45643 8.8182 2.79742 8.07631 1.67819 6.5951 0.558972 5.11389 0 2.9151 0 0M19.0473 0C19.0473-4.31956 17.9754-7.64013 15.8328-9.96044 13.6903-12.282 10.6217-13.4422 6.62324-13.4422 2.62474-13.4422-0.44641-12.282-2.58764-9.96044-4.73015-7.64013-5.80077-4.30805-5.80077 0.034536-5.80077 4.37968-4.7276 7.69642-2.57997 9.9873-0.43234 12.2782 2.64776 13.423 6.65778 13.423 10.6691 13.423 13.7351 12.2692 15.8597 9.96044 17.9843 7.65037 19.0473 4.33107 19.0473 0" fill="#333333" transform="matrix(1 0 0 -1.00062 958.061 531.898)"/><path d="M0 0-0.731652 2.55311-1.01689 2.55311C-1.60017 1.62447-2.42647 0.90689-3.49837 0.401641-4.56899-0.103608-5.78926-0.356872-7.15791-0.356872-9.50252-0.356872-11.2703 0.271172-12.4585 1.52598-13.6494 2.78207-14.2442 4.58817-14.2442 6.9443L-14.2442 19.9567-8.80029 19.9567-8.80029 8.30016C-8.80029 6.85988-8.54447 5.78159-8.03154 5.06017-7.52118 4.34131-6.7051 3.9806-5.58716 3.9806-4.06374 3.9806-2.96242 4.48968-2.28449 5.50786-1.60656 6.52475-1.26632 8.2119-1.26632 10.568L-1.26632 19.9567 4.17758 19.9567 4.17758 0Z" fill="#333333" transform="matrix(1 0 0 -1.00062 994.396 544.991)"/><path d="M0 0C0.951659 0 2.09519 0.207216 3.42802 0.624207L3.42802-3.42802C2.07088-4.03432 0.404199-4.33875-1.57075-4.33875-3.74908-4.33875-5.3339-3.78745-6.32777-2.68741-7.32164-1.5861-7.81793 0.0652347-7.81793 2.26659L-7.81793 11.8881-10.4235 11.8881-10.4235 14.1905-7.42652 16.0119-5.85449 20.2253-2.37275 20.2253-2.37275 15.9748 3.21313 15.9748 3.21313 11.8881-2.37275 11.8881-2.37275 2.26659C-2.37275 1.49272-2.15786 0.92224-1.72296 0.553855-1.28807 0.184192-0.713744 0 0 0" fill="#333333" transform="matrix(1 0 0 -1.00062 1010.87 541.007)"/><path d="M0 0C-1.34563 0-2.3267-0.413153-2.94579-1.24074-3.56488-2.06832-3.88594-3.43441-3.91024-5.33773L-3.91024-5.9274C-3.91024-8.06864-3.59175-9.60357-2.95603-10.5309-2.31775-11.4608-1.30981-11.9239 0.0716303-11.9239 2.5109-11.9239 3.72989-9.91312 3.72989-5.89031 3.72989-3.92687 3.4293-2.45462 2.8294-1.47226 2.22693-0.491179 1.28423 0 0 0M1.60656-16.3343C-0.738047-16.3343-2.57741-15.4824-3.91024-13.7799L-4.19549-13.7799C-4.0049-15.4466-3.91024-16.411-3.91024-16.6719L-3.91024-24.7585-9.35414-24.7585-9.35414 3.97932-4.92842 3.97932-4.15967 1.39167-3.91024 1.39167C-2.63753 3.3679-0.750839 4.35538 1.74855 4.35538 4.10467 4.35538 5.94915 3.44465 7.28198 1.62447 8.61482-0.195704 9.28123-2.72579 9.28123-5.96194 9.28123-8.09294 8.96913-9.94254 8.34365-11.5133 7.71944-13.084 6.83046-14.28 5.67542-15.1025 4.52166-15.9224 3.1658-16.3343 1.60656-16.3343" fill="#333333" transform="matrix(1 0 0 -1.00062 1025.85 529.004)"/><path d="M0 0-0.731652 2.55311-1.01689 2.55311C-1.60017 1.62447-2.42647 0.90689-3.49837 0.401641-4.56899-0.103608-5.78926-0.356872-7.15791-0.356872-9.50252-0.356872-11.2703 0.271172-12.4585 1.52598-13.6494 2.78207-14.2442 4.58817-14.2442 6.9443L-14.2442 19.9567-8.80029 19.9567-8.80029 8.30016C-8.80029 6.85988-8.54447 5.78159-8.03154 5.06017-7.52118 4.34131-6.7051 3.9806-5.58716 3.9806-4.06374 3.9806-2.96242 4.48968-2.28449 5.50786-1.60656 6.52475-1.26632 8.2119-1.26632 10.568L-1.26632 19.9567 4.17758 19.9567 4.17758 0Z" fill="#333333" transform="matrix(1 0 0 -1.00062 1051.94 544.991)"/><path d="M0 0C0.951659 0 2.09519 0.207216 3.42802 0.624207L3.42802-3.42802C2.07088-4.03432 0.404199-4.33875-1.57075-4.33875-3.74908-4.33875-5.3339-3.78745-6.32777-2.68741-7.32164-1.5861-7.81793 0.0652347-7.81793 2.26659L-7.81793 11.8881-10.4235 11.8881-10.4235 14.1905-7.42652 16.0119-5.85449 20.2253-2.37275 20.2253-2.37275 15.9748 3.21313 15.9748 3.21313 11.8881-2.37275 11.8881-2.37275 2.26659C-2.37275 1.49272-2.15786 0.92224-1.72296 0.553855-1.28807 0.184192-0.713744 0 0 0" fill="#333333" transform="matrix(1 0 0 -1.00062 1068.41 541.007)"/><path d="M0 0 0 26.0964 5.53344 26.0964 5.53344 4.56899 16.1194 4.56899 16.1194 0Z" fill="#333333" transform="matrix(1 0 0 -1.00062 967.651 583.768)"/><path d="M0 0-2.10542-0.0716303C-3.68896-0.118957-4.86702-0.404199-5.6396-0.928635-6.41475-1.45179-6.79976-2.24868-6.79976-3.32057-6.79976-4.85551-5.91973-5.62297-4.15839-5.62297-2.89847-5.62297-1.88925-5.25971-1.13329-4.53317-0.377338-3.80792 0-2.84474 0-1.6411ZM1.60784-9.2467 0.553855-6.53242 0.410595-6.53242C-0.506528-7.68746-1.44923-8.48819-2.4188-8.93332-3.38837-9.37973-4.65341-9.60357-6.21137-9.60357-8.12748-9.60357-9.63555-9.05611-10.7369-7.96119-11.8369-6.86627-12.3882-5.30703-12.3882-3.28348-12.3882-1.16527-11.6463 0.396525-10.1651 1.40191-8.68389 2.40729-6.44928 2.9637-3.46256 3.06987L0 3.17731 0 4.05223C0 6.07578-1.0348 7.08756-3.10568 7.08756-4.70074 7.08756-6.57463 6.60533-8.72866 5.64088L-10.5309 9.31833C-8.23364 10.5207-5.68821 11.1206-2.89207 11.1206-0.213612 11.1206 1.83808 10.5373 3.26685 9.37205 4.69562 8.2055 5.40936 6.43265 5.40936 4.05223L5.40936-9.2467Z" fill="#333333" transform="matrix(1 0 0 -1.00062 997.115 574.516)"/><path d="M0 0 5.96194 0 9.72764-11.2268C10.0487-12.2027 10.27-13.3578 10.3889-14.6893L10.4964-14.6893C10.6269-13.4639 10.8827-12.3102 11.2639-11.2268L14.9579 0 20.7958 0 12.3524-22.5098C11.5785-24.5922 10.4746-26.1502 9.04076-27.1862 7.60688-28.2198 5.93252-28.7391 4.01641-28.7391 3.07626-28.7391 2.15402-28.638 1.24969-28.4347L1.24969-24.1164C1.90332-24.2699 2.61834-24.3466 3.39093-24.3466 4.35538-24.3466 5.19703-24.0537 5.91717-23.464 6.63731-22.8744 7.20012-21.9841 7.60432-20.7958L7.92538-19.8134Z" fill="#333333" transform="matrix(1 0 0 -1.00062 1003.44 563.799)"/><path d="M0 0C-1.15376 0-2.05809-0.365826-2.713-1.09748-3.3679-1.83041-3.74268-2.86777-3.83861-4.21339L3.8028-4.21339C3.77722-2.86777 3.42802-1.83041 2.74881-1.09748 2.0696-0.365826 1.15376 0 0 0M0.767467-16.8152C-2.44566-16.8152-4.95656-15.9288-6.76522-14.1559-8.57389-12.3831-9.47822-9.87218-9.47822-6.62324-9.47822-3.27836-8.64296-0.693279-6.97116 1.13329-5.29936 2.95859-2.988 3.87315-0.0358151 3.87315 2.78463 3.87315 4.98086 3.06987 6.55033 1.4633 8.12236-0.143261 8.90773-2.3638 8.90773-5.19575L8.90773-7.83712-3.96397-7.83712C-3.90385-9.38356-3.44465-10.591-2.58764-11.4608-1.73192-12.3294-0.529552-12.7643 1.01689-12.7643 2.21798-12.7643 3.35511-12.6389 4.42701-12.3895 5.49762-12.1388 6.61684-11.741 7.78212-11.1922L7.78212-15.4056C6.83046-15.8815 5.81356-16.2345 4.73015-16.4673 3.64803-16.7001 2.32543-16.8152 0.767467-16.8152" fill="#333333" transform="matrix(1 0 0 -1.00062 1033.53 567.299)"/><path d="M0 0C0.736768 0 1.35074-0.0537227 1.83808-0.161168L1.42749-5.2661C0.986195-5.14715 0.451526-5.08831-0.179076-5.08831-1.91611-5.08831-3.27069-5.53344-4.23898-6.42626-5.20982-7.31908-5.69461-8.56877-5.69461-10.1753L-5.69461-20.3328-11.1398-20.3328-11.1398-0.376059-7.01593-0.376059-6.21137-3.73117-5.94403-3.73117C-5.32622-2.61323-4.48968-1.71145-3.43697-1.02713-2.38299-0.342802-1.23818 0 0 0" fill="#333333" transform="matrix(1 0 0 -1.00062 1056.18 563.423)"/></g></g></g></g></g></svg>