<?xml version="1.0" standalone="no"?>
<!DOCTYPE svg PUBLIC "-//W3C//DTD SVG 20010904//EN"
 "http://www.w3.org/TR/2001/REC-SVG-20010904/DTD/svg10.dtd">
<svg version="1.0" xmlns="http://www.w3.org/2000/svg"
 width="620.000000pt" height="620.000000pt" viewBox="0 0 620.000000 620.000000"
 preserveAspectRatio="xMidYMid meet">
<metadata>
Created by potrace 1.11, written by Peter Selinger 2001-2013
</metadata>
<g transform="translate(0.000000,620.000000) scale(0.100000,-0.100000)"
fill="#000000" stroke="none">
<path d="M916 5983 c-1 -1 -178 -3 -392 -3 -215 -1 -395 -4 -400 -8 -6 -4 -11
-55 -11 -117 -2 -382 -4 -771 -4 -780 1 -7 244 -9 714 -7 l714 4 0 -64 c0 -74
13 -425 18 -483 2 -22 6 -83 10 -135 3 -52 8 -111 10 -130 2 -19 6 -73 10
-120 3 -47 8 -101 10 -120 3 -19 7 -64 10 -100 6 -74 13 -144 20 -210 3 -25 7
-72 10 -105 3 -33 7 -76 9 -95 3 -19 8 -66 11 -105 3 -38 8 -86 10 -105 2 -19
7 -71 10 -115 4 -44 9 -93 10 -110 2 -16 6 -68 10 -115 3 -47 8 -105 10 -130
23 -269 23 -708 0 -875 -3 -16 -7 -48 -9 -70 -14 -114 -55 -256 -102 -360 -78
-169 -234 -301 -394 -332 -249 -48 -474 3 -630 145 -135 121 -208 297 -234
555 -1 15 -5 30 -9 33 -7 7 -207 7 -215 0 -15 -16 10 -249 44 -406 8 -36 17
-74 19 -86 25 -116 98 -309 172 -459 208 -418 509 -666 893 -739 149 -28 425
-14 579 29 503 142 807 593 805 1200 0 90 -13 459 -18 520 -2 22 -7 99 -11
170 -3 72 -8 148 -10 170 -4 37 -8 85 -20 245 -3 36 -7 85 -10 110 -2 25 -7
77 -10 115 -3 39 -7 90 -10 115 -11 106 -15 159 -20 220 -3 36 -7 85 -10 110
-7 66 -14 137 -20 200 -3 30 -7 75 -10 100 -8 74 -14 131 -21 205 -3 39 -8 81
-9 95 -1 14 -6 61 -9 105 -4 44 -9 96 -11 115 -4 35 -10 96 -20 220 -3 36 -7
83 -10 105 -2 22 -7 72 -10 110 -3 39 -7 97 -10 130 -3 33 -7 89 -10 125 -11
166 -16 249 -20 293 l-4 47 660 0 659 0 1 -27 c0 -16 2 -37 4 -48 3 -11 7 -56
10 -100 3 -44 8 -96 10 -115 2 -19 6 -66 9 -105 3 -38 8 -90 10 -115 5 -46 11
-118 22 -250 3 -41 7 -88 9 -105 3 -30 12 -131 21 -240 2 -33 6 -80 9 -105 2
-25 7 -79 10 -120 3 -41 8 -95 10 -120 3 -25 7 -76 10 -115 7 -87 14 -174 20
-245 3 -30 8 -82 10 -115 9 -112 15 -180 20 -215 2 -19 7 -69 10 -110 3 -41 7
-91 10 -110 2 -19 7 -66 10 -105 3 -38 8 -88 10 -110 3 -22 7 -65 10 -95 3
-30 8 -71 10 -90 2 -19 7 -62 10 -95 3 -33 8 -73 10 -90 2 -16 7 -51 10 -77 8
-72 16 -140 20 -168 8 -55 15 -107 20 -145 13 -99 48 -298 70 -405 2 -14 10
-50 16 -80 24 -123 92 -353 139 -470 151 -379 389 -571 725 -584 63 -3 106 3
210 28 26 7 137 57 145 65 3 4 16 12 30 19 38 20 122 101 168 162 77 103 119
226 127 369 11 181 -49 304 -342 698 -213 287 -351 510 -483 778 -199 407
-325 798 -424 1320 -9 43 -35 203 -41 250 -3 22 -7 54 -10 70 -10 65 -20 147
-30 245 -3 30 -8 73 -10 95 -3 22 -7 76 -10 120 -3 44 -8 100 -10 125 -2 25
-6 115 -10 200 -3 85 -8 190 -10 233 -2 48 1 79 8 84 28 17 426 25 554 10 339
-38 612 -181 787 -411 53 -70 133 -194 183 -285 14 -25 44 -74 67 -109 l41
-63 110 6 c61 4 110 8 111 9 1 1 -130 342 -151 391 -7 17 -38 100 -69 185 -32
85 -61 164 -66 175 -5 11 -26 61 -46 110 -143 353 -291 535 -533 655 -123 61
-377 132 -561 155 -30 4 -62 9 -71 10 -31 6 -153 19 -284 30 -111 10 -298 20
-555 32 -134 6 -2828 12 -2834 6z"/>
</g>
</svg>
